{
	"asset":{
		"generator":"Khronos glTF Blender I/O v4.0.44",
		"version":"2.0"
	},
	"extensionsUsed":[
		"KHR_materials_unlit"
	],
	"scene":0,
	"scenes":[
		{
			"name":"Scene",
			"nodes":[
				0,
				1,
				3
			]
		}
	],
	"nodes":[
		{
			"name":"RootNode"
		},
		{
			"name":"RootNode.001"
		},
		{
			"mesh":0,
			"name":"model",
			"scale":[
				100,
				100,
				100
			]
		},
		{
			"children":[
				2
			],
			"name":"RootNode.002"
		}
	],
	"materials":[
		{
			"doubleSided":true,
			"extensions":{
				"KHR_materials_unlit":{}
			},
			"name":"Material.005",
			"pbrMetallicRoughness":{
				"baseColorTexture":{
					"index":0
				},
				"metallicFactor":0,
				"roughnessFactor":0.9
			}
		}
	],
	"meshes":[
		{
			"name":"model.007",
			"primitives":[
				{
					"attributes":{
						"POSITION":0,
						"NORMAL":1,
						"TEXCOORD_0":2
					},
					"indices":3,
					"material":0
				}
			]
		}
	],
	"textures":[
		{
			"sampler":0,
			"source":0
		}
	],
	"images":[
		{
			"mimeType":"image/png",
			"name":"prinny_texture",
			"uri":"prinny_texture.png"
		}
	],
	"accessors":[
		{
			"bufferView":0,
			"componentType":5126,
			"count":107439,
			"max":[
				0.5627520084381104,
				1.8998010158538818,
				0.5048990249633789
			],
			"min":[
				-0.55902498960495,
				0,
				-0.5103880167007446
			],
			"type":"VEC3"
		},
		{
			"bufferView":1,
			"componentType":5126,
			"count":107439,
			"type":"VEC3"
		},
		{
			"bufferView":2,
			"componentType":5126,
			"count":107439,
			"type":"VEC2"
		},
		{
			"bufferView":3,
			"componentType":5125,
			"count":107439,
			"type":"SCALAR"
		}
	],
	"bufferViews":[
		{
			"buffer":0,
			"byteLength":1289268,
			"byteOffset":0,
			"target":34962
		},
		{
			"buffer":0,
			"byteLength":1289268,
			"byteOffset":1289268,
			"target":34962
		},
		{
			"buffer":0,
			"byteLength":859512,
			"byteOffset":2578536,
			"target":34962
		},
		{
			"buffer":0,
			"byteLength":429756,
			"byteOffset":3438048,
			"target":34963
		}
	],
	"samplers":[
		{
			"magFilter":9729,
			"minFilter":9987
		}
	],
	"buffers":[
		{
			"byteLength":3867804,
			"uri":"prinny.bin"
		}
	]
}
